<?xml version="1.0" standalone="no"?>
<!DOCTYPE svg PUBLIC "-//W3C//DTD SVG 20010904//EN"
 "http://www.w3.org/TR/2001/REC-SVG-20010904/DTD/svg10.dtd">
<svg version="1.0" xmlns="http://www.w3.org/2000/svg"
 width="136.000000pt" height="140.000000pt" viewBox="0 0 136.000000 140.000000"
 preserveAspectRatio="xMidYMid meet">

<g transform="translate(0.000000,140.000000) scale(0.100000,-0.100000)"
fill="#000000" stroke="none">
<path d="M755 1307 c-197 -82 -531 -271 -623 -353 -44 -39 -46 -43 -50 -105
-4 -60 -1 -72 42 -163 l46 -99 0 -126 c0 -86 4 -131 12 -139 7 -7 36 -12 65
-12 l53 0 35 -70 c41 -81 91 -123 163 -138 26 -6 138 -18 249 -28 165 -14 210
-15 243 -5 65 19 114 71 152 161 l33 80 46 0 c25 0 50 5 57 12 14 14 15 102 3
167 -7 32 -5 53 6 80 11 25 14 55 10 98 -4 56 -16 83 -152 330 -81 147 -157
279 -169 291 -54 61 -108 65 -221 19z m165 -22 c30 -16 49 -47 243 -400 l98
-180 -3 -67 c-4 -74 -13 -90 -45 -82 -20 6 -21 7 -6 41 9 23 12 49 8 72 -4 20
-73 155 -154 301 -118 212 -153 267 -174 274 -20 8 -42 3 -99 -20 -186 -75
-577 -296 -613 -347 -23 -32 -19 -57 25 -152 22 -48 40 -89 40 -91 0 -2 -11
-4 -25 -4 -21 0 -30 11 -60 78 -72 153 -62 182 97 286 172 112 296 177 558
294 35 15 76 14 110 -3z m-184 -140 c9 -14 21 -25 26 -25 51 0 131 -90 98
-110 -9 -6 -1 -14 28 -29 23 -12 42 -28 42 -35 0 -8 3 -21 6 -30 5 -12 0 -16
-17 -16 -23 0 -22 -1 9 -26 39 -31 43 -58 7 -52 -33 7 -32 4 10 -21 46 -27 48
-56 3 -47 -18 4 -53 10 -78 15 -25 4 -53 12 -62 16 -37 15 -16 -51 30 -93 31
-29 17 -52 -22 -35 -15 7 -27 8 -33 2 -6 -6 -18 -3 -34 9 -36 28 -60 34 -78
19 -30 -24 -90 -47 -96 -36 -9 13 13 39 42 50 24 9 48 53 38 70 -4 5 -24 0
-45 -11 -46 -23 -100 -27 -100 -6 0 8 -7 16 -15 20 -19 7 -20 36 -2 36 8 0 21
8 31 19 15 16 15 19 1 31 -14 12 -13 16 7 38 13 13 34 29 48 35 l25 11 -25 4
c-43 7 -43 18 -1 51 23 18 41 41 41 52 0 10 5 19 10 19 6 0 10 5 10 11 0 13
61 87 72 88 4 1 15 -10 24 -24z m0 -533 c16 -10 -1 -52 -21 -52 -8 0 -15 -4
-15 -10 0 -5 10 -10 23 -10 17 0 25 8 32 32 11 37 47 55 89 44 32 -8 36 -45 6
-53 -24 -6 -25 -8 -2 -31 15 -15 21 -16 42 -5 30 15 89 17 124 3 28 -10 33
-24 40 -127 l5 -73 -35 0 c-19 0 -34 5 -34 11 0 8 -4 8 -12 2 -42 -33 -113
-20 -124 22 -12 47 9 72 70 86 34 7 56 17 56 26 0 15 -36 18 -45 3 -3 -5 -28
-10 -55 -10 l-49 0 -3 -67 -3 -68 -37 -3 -38 -3 0 70 c0 69 -1 71 -25 71 -24
0 -25 -2 -25 -70 l0 -70 -40 0 -40 0 0 70 c0 40 -4 70 -10 70 -6 0 -10 -30
-10 -70 l0 -70 -35 0 c-19 0 -35 4 -35 9 0 6 -12 3 -27 -5 -40 -20 -60 -18
-88 11 -23 22 -25 23 -25 5 0 -19 -7 -20 -100 -20 l-100 0 0 140 0 140 40 0
40 0 0 -105 0 -105 58 0 c45 0 63 4 76 19 10 11 40 25 67 31 30 7 49 17 49 26
0 16 -36 19 -45 4 -9 -15 -75 -13 -75 3 1 34 42 57 105 57 35 0 51 -6 70 -25
l25 -24 0 24 c0 14 4 25 9 25 5 0 15 15 21 34 6 19 19 37 28 39 28 8 66 7 78
-1z m414 -47 c0 -42 2 -45 19 -35 30 16 59 12 81 -10 17 -17 20 -33 20 -105
l0 -85 -40 0 -40 0 0 70 c0 63 -2 70 -20 70 -18 0 -20 -7 -20 -70 l0 -70 -40
0 -40 0 0 140 0 140 40 0 40 0 0 -45z m-810 -137 c0 -5 -11 -8 -25 -8 -24 0
-25 3 -25 53 l1 52 24 -45 c13 -25 24 -48 25 -52z m78 -163 c13 -27 34 -50 53
-61 39 -19 374 -57 461 -51 70 4 97 26 128 103 19 45 27 54 47 54 28 0 27 -10
-15 -98 -33 -70 -78 -104 -145 -109 -76 -6 -451 33 -484 51 -35 18 -76 62 -97
103 -22 43 -20 53 7 53 17 0 28 -11 45 -45z m166 6 c7 -11 75 -9 93 2 6 4 15
2 18 -4 4 -5 13 -8 21 -5 7 3 16 1 19 -5 4 -5 11 -7 16 -4 5 4 9 0 9 -7 0 -10
2 -10 8 0 5 7 35 14 73 16 35 2 65 4 67 5 11 5 17 -2 19 -24 1 -14 -2 -25 -8
-25 -5 0 -9 8 -10 18 0 14 -2 14 -7 2 -4 -9 -23 -17 -44 -19 -31 -2 -38 1 -38
16 -1 16 -2 16 -10 2 -8 -13 -28 -16 -117 -15 -59 1 -114 5 -120 9 -8 5 -13 3
-13 -3 0 -6 -4 -8 -10 -5 -5 3 -10 17 -10 31 0 17 5 24 19 24 11 0 22 -4 25
-9z"/>
<path d="M697 1127 c-16 -25 -20 -40 -18 -70 1 -14 5 -16 20 -7 30 16 81 13
81 -5 0 -11 -12 -15 -44 -15 -40 0 -45 -3 -60 -34 -16 -34 -40 -51 -57 -40 -5
3 -9 -2 -9 -10 0 -9 -13 -22 -28 -30 -38 -20 -60 -46 -39 -46 8 0 20 7 27 15
14 17 80 21 80 5 0 -6 -13 -13 -30 -16 -16 -4 -30 -11 -30 -15 0 -5 -11 -14
-25 -19 -14 -5 -25 -14 -25 -20 0 -6 -10 -15 -22 -20 -17 -6 -19 -9 -6 -9 10
-1 33 7 53 16 19 9 38 14 41 10 11 -11 -16 -35 -47 -42 -16 -4 -31 -11 -34
-16 -10 -16 24 -10 65 11 22 11 49 20 61 20 18 0 21 -4 17 -32 -3 -18 -9 -42
-13 -53 -8 -19 -8 -19 11 -3 24 21 61 14 86 -16 14 -17 17 -17 12 -3 -8 22 14
22 46 0 24 -17 24 -16 -2 16 -19 22 -28 44 -28 67 l0 35 58 -6 c31 -4 72 -13
90 -21 17 -7 32 -10 32 -5 0 11 -130 81 -152 81 -11 0 -18 5 -15 13 5 14 77
13 86 -2 4 -5 20 -12 36 -16 l30 -7 -30 26 c-16 14 -38 25 -47 26 -36 0 -17
20 20 20 27 0 33 3 22 10 -8 5 -25 10 -37 10 -14 0 -23 6 -23 15 0 12 7 14 28
9 19 -4 11 4 -30 31 -63 40 -75 61 -30 51 25 -5 26 -5 5 6 -25 12 -32 34 -8
24 8 -3 15 -1 15 3 0 5 -20 17 -46 27 -25 9 -51 26 -58 36 -13 18 -14 18 -29
-5z m105 -133 c4 -3 8 -10 8 -16 0 -6 -18 -7 -52 -3 -60 8 -63 9 -53 25 7 12
76 7 97 -6z m38 -50 c0 -9 -7 -14 -17 -12 -25 5 -28 28 -4 28 12 0 21 -6 21
-16z m-153 -30 c-9 -9 -28 6 -21 18 4 6 10 6 17 -1 6 -6 8 -13 4 -17z m75 2
c12 -17 -30 -19 -47 -2 -8 8 -15 17 -15 20 0 10 54 -6 62 -18z m-84 -72 c12
-4 22 -12 22 -18 0 -18 -41 -12 -52 7 -10 18 -5 20 30 11z m60 -6 c-6 -18 -28
-21 -28 -4 0 9 7 16 16 16 9 0 14 -5 12 -12z"/>
<path d="M650 1033 c-8 -3 -24 -15 -36 -27 -11 -12 -29 -26 -40 -32 -17 -10
-16 -11 9 -7 15 3 27 10 27 15 0 6 7 8 15 5 9 -4 19 5 29 23 8 17 14 30 13 29
-1 0 -9 -3 -17 -6z"/>
<path d="M488 413 c-18 -5 -26 -43 -9 -43 23 0 41 14 41 31 0 19 -2 20 -32 12z"/>
<path d="M934 406 c-15 -12 -17 -17 -6 -28 15 -15 45 0 50 26 4 20 -18 21 -44
2z"/>
</g>
</svg>
